<svg width="803" height="379" viewBox="0 0 803 379" fill="none" xmlns="http://www.w3.org/2000/svg">
<rect x="12" y="144" width="791" height="120" fill="#E6DD17"/>
<path d="M86.488 71.984H49.048V104H40.168V34.592H49.048V64.16H86.488V34.592H95.368V104H86.488V71.984ZM117.524 81.248C117.524 84.384 118.036 87.232 119.06 89.792C120.116 92.32 121.7 94.336 123.812 95.84C125.956 97.344 128.628 98.096 131.828 98.096C134.996 98.096 137.716 97.36 139.988 95.888C142.292 94.416 143.764 92.288 144.404 89.504H152.804C152.196 92.864 150.852 95.696 148.772 98C146.692 100.304 144.18 102.048 141.236 103.232C138.292 104.384 135.22 104.96 132.02 104.96C127.38 104.96 123.3 103.952 119.78 101.936C116.26 99.92 113.508 97.024 111.524 93.248C109.54 89.472 108.548 84.944 108.548 79.664C108.548 74.448 109.444 69.872 111.236 65.936C113.028 62 115.62 58.928 119.012 56.72C122.436 54.512 126.548 53.408 131.348 53.408C138.356 53.408 143.732 55.632 147.476 60.08C151.22 64.496 153.092 70.464 153.092 77.984V81.248H117.524ZM117.572 75.248H144.548C144.548 70.992 143.46 67.408 141.284 64.496C139.108 61.584 135.78 60.128 131.3 60.128C128.196 60.128 125.62 60.88 123.572 62.384C121.524 63.856 120.004 65.76 119.012 68.096C118.02 70.4 117.54 72.784 117.572 75.248ZM177.81 104.624C174.226 104.624 171.538 104 169.746 102.752C167.954 101.472 166.754 99.824 166.146 97.808C165.57 95.76 165.282 93.568 165.282 91.232V32.672H174.018V90.368C174.018 92.896 174.498 94.784 175.458 96.032C176.45 97.248 177.826 97.92 179.586 98.048L182.274 98.096V103.856C180.674 104.368 179.186 104.624 177.81 104.624ZM204.997 104.624C201.413 104.624 198.725 104 196.933 102.752C195.141 101.472 193.941 99.824 193.333 97.808C192.757 95.76 192.469 93.568 192.469 91.232V32.672H201.205V90.368C201.205 92.896 201.685 94.784 202.645 96.032C203.637 97.248 205.013 97.92 206.773 98.048L209.461 98.096V103.856C207.861 104.368 206.373 104.624 204.997 104.624ZM239.947 104.96C233.067 104.96 227.547 102.768 223.387 98.384C219.227 94 217.147 87.664 217.147 79.376C217.147 74.192 218.027 69.648 219.787 65.744C221.547 61.84 224.123 58.816 227.515 56.672C230.907 54.496 235.051 53.408 239.947 53.408C246.795 53.408 252.267 55.648 256.363 60.128C260.459 64.608 262.507 71.024 262.507 79.376C262.507 84.432 261.643 88.88 259.915 92.72C258.219 96.56 255.691 99.568 252.331 101.744C249.003 103.888 244.875 104.96 239.947 104.96ZM239.947 97.952C244.395 97.952 247.803 96.288 250.171 92.96C252.539 89.6 253.723 85.008 253.723 79.184C253.723 75.632 253.243 72.448 252.283 69.632C251.355 66.784 249.883 64.528 247.867 62.864C245.851 61.2 243.211 60.368 239.947 60.368C235.435 60.368 231.979 62.032 229.579 65.36C227.179 68.656 225.979 73.264 225.979 79.184C225.979 82.672 226.459 85.84 227.419 88.688C228.379 91.536 229.883 93.792 231.931 95.456C233.979 97.12 236.651 97.952 239.947 97.952ZM270.957 116.048L276.333 104.192L272.157 103.952V93.344H283.245V102.56L275.085 116.048H270.957ZM317.518 57.728H323.438V104H317.518V57.728ZM332.731 72.832L336.283 64.896L333.531 64.736V57.728H340.923V63.872L335.483 72.832H332.731ZM347.865 104V70.912H353.561V75.712C354.478 74.24 355.726 72.9707 357.305 71.904C358.905 70.816 360.995 70.272 363.577 70.272C365.39 70.272 367.214 70.7307 369.049 71.648C370.883 72.5653 372.238 73.9093 373.113 75.68C374.137 74.0587 375.523 72.7573 377.273 71.776C379.022 70.7733 380.995 70.272 383.193 70.272C384.345 70.272 385.55 70.4533 386.809 70.816C388.067 71.1573 389.241 71.776 390.329 72.672C391.417 73.5467 392.291 74.7733 392.953 76.352C393.635 77.9093 393.977 79.9147 393.977 82.368V104H388.025V82.944C388.025 80.9387 387.705 79.3813 387.065 78.272C386.425 77.1627 385.582 76.3947 384.537 75.968C383.513 75.52 382.414 75.296 381.241 75.296C380.217 75.296 379.129 75.4987 377.977 75.904C376.825 76.3093 375.843 76.992 375.033 77.952C374.222 78.912 373.817 80.224 373.817 81.888V104H367.929V81.216C367.929 79.9147 367.577 78.8267 366.873 77.952C366.19 77.056 365.326 76.3947 364.281 75.968C363.257 75.52 362.233 75.296 361.209 75.296C360.078 75.296 358.937 75.5307 357.785 76C356.654 76.448 355.694 77.152 354.905 78.112C354.137 79.072 353.753 80.3307 353.753 81.888V104H347.865ZM39.4 239V169.592H56.104L74.296 222.632L92.68 169.592H109.288V239H97.432V184.568L79.144 239H69.4L51.256 184.904V239H39.4ZM142.583 239.96C139.351 239.928 136.295 239.288 133.415 238.04C130.535 236.792 128.183 234.952 126.359 232.52C124.535 230.056 123.623 227.016 123.623 223.4V189.368H135.335V222.056C135.335 224.776 136.183 227 137.879 228.728C139.607 230.424 142.199 231.272 145.655 231.272C148.791 231.272 151.303 230.456 153.191 228.824C155.079 227.16 156.023 224.776 156.023 221.672V189.368H167.639V239H158.663L157.367 229.304C156.759 232.024 155.687 234.168 154.151 235.736C152.647 237.272 150.871 238.36 148.823 239C146.807 239.64 144.727 239.96 142.583 239.96ZM180.593 239V167.672H192.113V196.568C193.329 194.712 195.105 192.984 197.441 191.384C199.809 189.752 202.977 188.936 206.945 188.936C210.113 188.936 213.009 189.544 215.633 190.76C218.257 191.976 220.353 193.736 221.921 196.04C223.489 198.312 224.273 201.032 224.273 204.2V239H212.561V206.168C212.561 203.608 211.649 201.624 209.825 200.216C208.001 198.808 205.729 198.104 203.009 198.104C200.225 198.104 197.729 198.824 195.521 200.264C193.345 201.672 192.257 203.8 192.257 206.648V239H180.593ZM250.532 239.96C245.764 239.96 241.812 238.68 238.676 236.12C235.54 233.528 233.972 229.88 233.972 225.176C233.972 219.704 235.94 215.576 239.876 212.792C243.844 210.008 250.164 208.552 258.836 208.424L266.228 208.232V204.872C266.228 202.248 265.444 200.2 263.876 198.728C262.308 197.256 259.908 196.52 256.676 196.52C254.244 196.552 252.036 197.128 250.052 198.248C248.068 199.368 246.756 201.208 246.116 203.768H236.18C236.436 198.68 238.468 194.856 242.276 192.296C246.116 189.704 251.092 188.408 257.204 188.408C264.276 188.408 269.412 189.8 272.612 192.584C275.844 195.336 277.46 199.208 277.46 204.2V239H267.62L266.708 230.072C264.884 233.816 262.612 236.408 259.892 237.848C257.172 239.256 254.052 239.96 250.532 239.96ZM254.324 232.04C256.244 232.04 258.116 231.592 259.94 230.696C261.764 229.768 263.268 228.584 264.452 227.144C265.636 225.704 266.228 224.168 266.228 222.536V214.712L260.132 214.808C255.62 214.872 251.988 215.592 249.236 216.968C246.484 218.344 245.108 220.68 245.108 223.976C245.108 226.504 245.988 228.488 247.748 229.928C249.508 231.336 251.7 232.04 254.324 232.04ZM291.124 239V189.368H302.5V196.472C303.908 194.296 305.844 192.408 308.308 190.808C310.804 189.208 313.988 188.408 317.86 188.408C320.484 188.408 323.14 189.096 325.828 190.472C328.548 191.816 330.596 193.8 331.972 196.424C333.54 194.088 335.62 192.168 338.212 190.664C340.836 189.16 343.78 188.408 347.044 188.408C348.836 188.408 350.676 188.696 352.564 189.272C354.452 189.848 356.196 190.808 357.796 192.152C359.428 193.496 360.74 195.336 361.732 197.672C362.724 199.976 363.22 202.872 363.22 206.36V239H351.556V207.752C351.556 204.072 350.628 201.544 348.772 200.168C346.916 198.76 344.852 198.056 342.58 198.056C341.204 198.056 339.764 198.328 338.26 198.872C336.756 199.416 335.492 200.312 334.468 201.56C333.444 202.808 332.932 204.488 332.932 206.6V239H321.268V205.88C321.268 204.152 320.82 202.712 319.924 201.56C319.028 200.408 317.892 199.544 316.516 198.968C315.14 198.36 313.764 198.056 312.388 198.056C310.948 198.056 309.476 198.36 307.972 198.968C306.5 199.576 305.268 200.504 304.276 201.752C303.284 203 302.788 204.616 302.788 206.6V239H291.124ZM375.78 239V189.368H387.156V196.472C388.564 194.296 390.5 192.408 392.964 190.808C395.46 189.208 398.644 188.408 402.516 188.408C405.14 188.408 407.796 189.096 410.484 190.472C413.204 191.816 415.252 193.8 416.628 196.424C418.196 194.088 420.276 192.168 422.868 190.664C425.492 189.16 428.436 188.408 431.7 188.408C433.492 188.408 435.332 188.696 437.22 189.272C439.108 189.848 440.852 190.808 442.452 192.152C444.084 193.496 445.396 195.336 446.388 197.672C447.38 199.976 447.876 202.872 447.876 206.36V239H436.212V207.752C436.212 204.072 435.284 201.544 433.428 200.168C431.572 198.76 429.508 198.056 427.236 198.056C425.86 198.056 424.42 198.328 422.916 198.872C421.412 199.416 420.148 200.312 419.124 201.56C418.1 202.808 417.588 204.488 417.588 206.6V239H405.924V205.88C405.924 204.152 405.476 202.712 404.58 201.56C403.684 200.408 402.548 199.544 401.172 198.968C399.796 198.36 398.42 198.056 397.044 198.056C395.604 198.056 394.132 198.36 392.628 198.968C391.156 199.576 389.924 200.504 388.932 201.752C387.94 203 387.444 204.616 387.444 206.6V239H375.78ZM474.219 239.96C469.451 239.96 465.499 238.68 462.363 236.12C459.227 233.528 457.659 229.88 457.659 225.176C457.659 219.704 459.627 215.576 463.563 212.792C467.531 210.008 473.851 208.552 482.523 208.424L489.915 208.232V204.872C489.915 202.248 489.131 200.2 487.563 198.728C485.995 197.256 483.595 196.52 480.363 196.52C477.931 196.552 475.723 197.128 473.739 198.248C471.755 199.368 470.443 201.208 469.803 203.768H459.867C460.123 198.68 462.155 194.856 465.963 192.296C469.803 189.704 474.779 188.408 480.891 188.408C487.963 188.408 493.099 189.8 496.299 192.584C499.531 195.336 501.147 199.208 501.147 204.2V239H491.307L490.395 230.072C488.571 233.816 486.299 236.408 483.579 237.848C480.859 239.256 477.739 239.96 474.219 239.96ZM478.011 232.04C479.931 232.04 481.803 231.592 483.627 230.696C485.451 229.768 486.955 228.584 488.139 227.144C489.323 225.704 489.915 224.168 489.915 222.536V214.712L483.819 214.808C479.307 214.872 475.675 215.592 472.923 216.968C470.171 218.344 468.795 220.68 468.795 223.976C468.795 226.504 469.675 228.488 471.435 229.928C473.195 231.336 475.387 232.04 478.011 232.04ZM533.004 239.96C526.444 239.96 521.292 237.704 517.548 233.192C513.804 228.68 511.932 222.264 511.932 213.944C511.932 206.168 513.628 199.976 517.02 195.368C520.412 190.728 525.388 188.408 531.948 188.408C536.044 188.408 539.404 189.304 542.028 191.096C544.652 192.888 546.476 194.728 547.5 196.616V167.672H559.212V239H550.572L549.276 228.824C548.764 230.392 547.9 232.04 546.684 233.768C545.5 235.496 543.804 236.968 541.596 238.184C539.388 239.368 536.524 239.96 533.004 239.96ZM535.404 231.368C539.596 231.368 542.652 230.008 544.572 227.288C546.524 224.536 547.5 219.992 547.5 213.656C547.436 208.248 546.46 204.136 544.572 201.32C542.684 198.504 539.676 197.096 535.548 197.096C532.028 197.096 529.132 198.392 526.86 200.984C524.588 203.576 523.452 207.8 523.452 213.656C523.452 219.48 524.492 223.896 526.572 226.904C528.652 229.88 531.596 231.368 535.404 231.368ZM592.647 239V233.048L629.127 179.528H594.663V169.592H645.687V175.256L608.775 228.968H645.351V239H592.647ZM671.282 239.96C666.514 239.96 662.562 238.68 659.426 236.12C656.29 233.528 654.722 229.88 654.722 225.176C654.722 219.704 656.69 215.576 660.626 212.792C664.594 210.008 670.914 208.552 679.586 208.424L686.978 208.232V204.872C686.978 202.248 686.194 200.2 684.626 198.728C683.058 197.256 680.658 196.52 677.426 196.52C674.994 196.552 672.786 197.128 670.802 198.248C668.818 199.368 667.506 201.208 666.866 203.768H656.93C657.186 198.68 659.218 194.856 663.026 192.296C666.866 189.704 671.842 188.408 677.954 188.408C685.026 188.408 690.162 189.8 693.362 192.584C696.594 195.336 698.21 199.208 698.21 204.2V239H688.37L687.458 230.072C685.634 233.816 683.362 236.408 680.642 237.848C677.922 239.256 674.802 239.96 671.282 239.96ZM675.074 232.04C676.994 232.04 678.866 231.592 680.69 230.696C682.514 229.768 684.018 228.584 685.202 227.144C686.386 225.704 686.978 224.168 686.978 222.536V214.712L680.882 214.808C676.37 214.872 672.738 215.592 669.986 216.968C667.234 218.344 665.858 220.68 665.858 223.976C665.858 226.504 666.738 228.488 668.498 229.928C670.258 231.336 672.45 232.04 675.074 232.04ZM757.81 239H745.954L731.554 216.008L723.49 224.456V239H711.874V167.672H723.49V211.88L744.082 189.368H756.898L738.946 208.76L757.81 239ZM779.097 169.64V180.68H767.529V169.64H779.097ZM778.953 189.368V239H767.721V189.368H778.953ZM43.852 293.98V300.892H37.048V293.98H43.852ZM43.708 308.776V346H37.264V308.776H43.708ZM53.5141 310.936L57.5101 302.008L54.4141 301.828V293.944H62.7301V300.856L56.6101 310.936H53.5141ZM70.5393 346V308.776H76.9473V314.176C77.9793 312.52 79.3833 311.092 81.1593 309.892C82.9593 308.668 85.3113 308.056 88.2153 308.056C90.2553 308.056 92.3073 308.572 94.3713 309.604C96.4353 310.636 97.9593 312.148 98.9433 314.14C100.095 312.316 101.655 310.852 103.623 309.748C105.591 308.62 107.811 308.056 110.283 308.056C111.579 308.056 112.935 308.26 114.351 308.668C115.767 309.052 117.087 309.748 118.311 310.756C119.535 311.74 120.519 313.12 121.263 314.896C122.031 316.648 122.415 318.904 122.415 321.664V346H115.719V322.312C115.719 320.056 115.359 318.304 114.639 317.056C113.919 315.808 112.971 314.944 111.795 314.464C110.643 313.96 109.407 313.708 108.087 313.708C106.935 313.708 105.711 313.936 104.415 314.392C103.119 314.848 102.015 315.616 101.103 316.696C100.191 317.776 99.7353 319.252 99.7353 321.124V346H93.1113V320.368C93.1113 318.904 92.7153 317.68 91.9233 316.696C91.1553 315.688 90.1833 314.944 89.0073 314.464C87.8553 313.96 86.7033 313.708 85.5513 313.708C84.2793 313.708 82.9953 313.972 81.6993 314.5C80.4273 315.004 79.3473 315.796 78.4593 316.876C77.5953 317.956 77.1633 319.372 77.1633 321.124V346H70.5393ZM169.914 346.72C165.33 346.72 161.382 345.676 158.07 343.588C154.782 341.5 152.25 338.476 150.474 334.516C148.698 330.532 147.81 325.732 147.81 320.116C147.81 314.452 148.722 309.616 150.546 305.608C152.37 301.6 154.95 298.54 158.286 296.428C161.646 294.292 165.618 293.224 170.202 293.224C172.818 293.224 175.278 293.68 177.582 294.592C179.886 295.504 181.926 296.752 183.702 298.336C185.478 299.92 186.894 301.72 187.95 303.736C189.03 305.728 189.642 307.816 189.786 310H182.658C182.322 308.08 181.578 306.292 180.426 304.636C179.274 302.98 177.81 301.648 176.034 300.64C174.282 299.632 172.302 299.128 170.094 299.128C165.606 299.128 161.97 300.808 159.186 304.168C156.402 307.528 155.01 312.796 155.01 319.972C155.01 324.916 155.67 328.912 156.99 331.96C158.334 335.008 160.158 337.228 162.462 338.62C164.766 340.012 167.37 340.708 170.274 340.708C173.178 340.708 175.59 340.06 177.51 338.764C179.43 337.468 180.882 335.884 181.866 334.012C182.874 332.14 183.414 330.34 183.486 328.612L183.702 324.004H171.03V319.108L190.614 319.144V346H185.61V338.08C184.698 339.568 183.534 340.972 182.118 342.292C180.726 343.612 179.022 344.68 177.006 345.496C175.014 346.312 172.65 346.72 169.914 346.72ZM202.235 346V308.776H208.571V315.94C209.507 313.276 210.983 311.296 212.999 310C215.039 308.704 217.235 308.056 219.587 308.056C220.139 308.056 220.667 308.092 221.171 308.164C221.699 308.236 222.119 308.356 222.431 308.524V314.968C222.071 314.8 221.603 314.692 221.027 314.644C220.475 314.572 220.007 314.536 219.623 314.536C216.671 314.344 214.139 314.908 212.027 316.228C209.915 317.548 208.859 319.756 208.859 322.852V346H202.235ZM239.531 346.72C235.907 346.72 232.955 345.772 230.675 343.876C228.395 341.98 227.255 339.328 227.255 335.92C227.255 331.792 228.695 328.72 231.575 326.704C234.455 324.688 239.075 323.608 245.435 323.464L252.095 323.284V320.368C252.095 318.088 251.399 316.288 250.007 314.968C248.639 313.624 246.527 312.952 243.671 312.952C241.535 312.976 239.651 313.492 238.019 314.5C236.387 315.484 235.343 317.08 234.887 319.288H229.019C229.211 315.664 230.627 312.892 233.267 310.972C235.907 309.028 239.483 308.056 243.995 308.056C248.843 308.056 252.467 309.076 254.867 311.116C257.291 313.156 258.503 316.12 258.503 320.008V346H252.815L252.347 339.016C250.883 341.92 249.047 343.936 246.839 345.064C244.631 346.168 242.195 346.72 239.531 346.72ZM241.547 341.932C243.203 341.932 244.835 341.536 246.443 340.744C248.075 339.952 249.419 338.944 250.475 337.72C251.531 336.472 252.071 335.152 252.095 333.76V327.388L246.551 327.496C242.279 327.568 239.075 328.204 236.939 329.404C234.803 330.58 233.735 332.536 233.735 335.272C233.735 337.384 234.455 339.028 235.895 340.204C237.359 341.356 239.243 341.932 241.547 341.932ZM269.875 357.592V308.776H276.499L276.571 315.256C277.147 314.248 277.951 313.192 278.983 312.088C280.039 310.96 281.371 310.012 282.979 309.244C284.587 308.452 286.531 308.056 288.811 308.056C293.251 308.056 296.875 309.592 299.683 312.664C302.491 315.736 303.895 320.476 303.895 326.884C303.895 333.268 302.515 338.176 299.755 341.608C296.995 345.016 293.167 346.72 288.271 346.72C286.063 346.72 284.179 346.324 282.619 345.532C281.083 344.716 279.823 343.732 278.839 342.58C277.855 341.428 277.099 340.324 276.571 339.268V357.592H269.875ZM287.011 341.536C290.083 341.536 292.591 340.372 294.535 338.044C296.479 335.692 297.451 332.044 297.451 327.1C297.451 322.876 296.563 319.516 294.787 317.02C293.011 314.5 290.419 313.24 287.011 313.24C283.555 313.24 280.939 314.524 279.163 317.092C277.387 319.66 276.499 322.996 276.499 327.1C276.499 329.764 276.895 332.188 277.687 334.372C278.479 336.556 279.655 338.296 281.215 339.592C282.775 340.888 284.707 341.536 287.011 341.536ZM312.625 346V292.504H319.105V314.248C320.041 312.712 321.469 311.344 323.389 310.144C325.309 308.92 327.757 308.308 330.733 308.308C333.157 308.308 335.353 308.764 337.321 309.676C339.289 310.564 340.849 311.836 342.001 313.492C343.153 315.148 343.729 317.116 343.729 319.396V346H337.069V320.728C337.069 318.496 336.301 316.78 334.765 315.58C333.253 314.356 331.273 313.744 328.825 313.744C327.145 313.744 325.573 314.02 324.109 314.572C322.669 315.1 321.493 315.916 320.581 317.02C319.693 318.1 319.249 319.48 319.249 321.16V346H312.625ZM361.454 293.98V300.892H354.65V293.98H361.454ZM361.31 308.776V346H354.866V308.776H361.31ZM387.856 308.056C391.864 308.056 395.236 309.196 397.972 311.476C400.708 313.732 402.328 316.756 402.832 320.548H396.928C396.592 318.604 395.644 316.936 394.084 315.544C392.524 314.128 390.46 313.42 387.892 313.42C384.724 313.42 382.132 314.572 380.116 316.876C378.124 319.18 377.128 322.708 377.128 327.46C377.128 331.756 378.04 335.2 379.864 337.792C381.712 340.36 384.424 341.644 388 341.644C390.544 341.644 392.596 340.924 394.156 339.484C395.716 338.044 396.652 336.388 396.964 334.516H402.76C402.28 338.26 400.66 341.236 397.9 343.444C395.164 345.628 391.816 346.72 387.856 346.72C384.496 346.72 381.532 345.988 378.964 344.524C376.396 343.06 374.38 340.9 372.916 338.044C371.452 335.188 370.72 331.684 370.72 327.532C370.72 323.668 371.38 320.272 372.7 317.344C374.044 314.416 375.988 312.136 378.532 310.504C381.1 308.872 384.208 308.056 387.856 308.056ZM429.306 293.944C429.498 293.944 430.29 293.944 431.682 293.944C433.074 293.944 434.67 293.956 436.47 293.98C438.294 293.98 439.938 293.992 441.402 294.016C450.954 294.16 457.854 296.416 462.102 300.784C466.35 305.128 468.474 311.416 468.474 319.648C468.474 328.288 466.206 334.84 461.67 339.304C457.158 343.768 450.174 346 440.718 346H429.306V293.944ZM436.146 299.668V340.276H440.718C445.014 340.276 448.71 339.616 451.806 338.296C454.902 336.952 457.278 334.78 458.934 331.78C460.614 328.78 461.454 324.772 461.454 319.756C461.454 314.74 460.638 310.768 459.006 307.84C457.398 304.912 455.07 302.824 452.022 301.576C448.974 300.304 445.302 299.668 441.006 299.668H436.146ZM482.612 328.936C482.612 331.288 482.996 333.424 483.764 335.344C484.556 337.24 485.744 338.752 487.328 339.88C488.936 341.008 490.94 341.572 493.34 341.572C495.716 341.572 497.756 341.02 499.46 339.916C501.188 338.812 502.292 337.216 502.772 335.128H509.072C508.616 337.648 507.608 339.772 506.048 341.5C504.488 343.228 502.604 344.536 500.396 345.424C498.188 346.288 495.884 346.72 493.484 346.72C490.004 346.72 486.944 345.964 484.304 344.452C481.664 342.94 479.6 340.768 478.112 337.936C476.624 335.104 475.88 331.708 475.88 327.748C475.88 323.836 476.552 320.404 477.896 317.452C479.24 314.5 481.184 312.196 483.728 310.54C486.296 308.884 489.38 308.056 492.98 308.056C498.236 308.056 502.268 309.724 505.076 313.06C507.884 316.372 509.288 320.848 509.288 326.488V328.936H482.612ZM482.648 324.436H502.88C502.88 321.244 502.064 318.556 500.432 316.372C498.8 314.188 496.304 313.096 492.944 313.096C490.616 313.096 488.684 313.66 487.148 314.788C485.612 315.892 484.472 317.32 483.728 319.072C482.984 320.8 482.624 322.588 482.648 324.436ZM531.361 346.72C528.745 346.72 526.333 346.312 524.125 345.496C521.917 344.68 520.069 343.432 518.581 341.752C517.117 340.048 516.205 337.852 515.845 335.164H521.893C522.373 337.348 523.465 338.992 525.169 340.096C526.897 341.2 528.949 341.752 531.325 341.752C533.821 341.752 535.837 341.284 537.373 340.348C538.909 339.412 539.677 337.972 539.677 336.028C539.677 333.412 538.033 331.708 534.745 330.916L527.041 329.008C524.017 328.288 521.605 327.16 519.805 325.624C518.029 324.088 517.141 321.94 517.141 319.18C517.117 315.916 518.293 313.252 520.669 311.188C523.045 309.1 526.597 308.056 531.325 308.056C535.357 308.056 538.609 308.968 541.081 310.792C543.577 312.616 544.873 315.268 544.969 318.748H539.101C538.837 316.972 538.033 315.568 536.689 314.536C535.345 313.48 533.533 312.952 531.253 312.952C528.877 312.952 526.945 313.432 525.457 314.392C523.969 315.328 523.225 316.792 523.225 318.784C523.225 320.104 523.753 321.148 524.809 321.916C525.865 322.66 527.425 323.284 529.489 323.788L536.941 325.66C539.221 326.26 540.997 327.112 542.269 328.216C543.541 329.32 544.429 330.532 544.933 331.852C545.437 333.172 545.689 334.444 545.689 335.668C545.689 339.1 544.429 341.8 541.909 343.768C539.389 345.736 535.873 346.72 531.361 346.72ZM562.336 293.98V300.892H555.532V293.98H562.336ZM562.192 308.776V346H555.748V308.776H562.192ZM589.462 358.312C583.63 358.312 579.082 357.46 575.818 355.756C572.554 354.076 570.922 351.664 570.922 348.52C570.922 347.176 571.234 346.036 571.858 345.1C572.482 344.14 573.226 343.348 574.09 342.724C574.954 342.1 575.758 341.608 576.502 341.248C577.246 340.864 577.726 340.588 577.942 340.42C577.534 340.18 577.018 339.88 576.394 339.52C575.794 339.16 575.266 338.68 574.81 338.08C574.354 337.48 574.126 336.7 574.126 335.74C574.126 334.564 574.666 333.496 575.746 332.536C576.85 331.552 578.494 330.808 580.678 330.304C578.494 329.224 576.79 327.772 575.566 325.948C574.342 324.1 573.73 322.108 573.73 319.972C573.73 316.348 575.17 313.48 578.05 311.368C580.93 309.256 584.89 308.2 589.93 308.2C592.354 308.2 594.394 308.488 596.05 309.064C597.706 309.616 599.242 310.408 600.658 311.44C601.186 311.224 602.074 310.852 603.322 310.324C604.57 309.796 605.842 309.268 607.138 308.74C608.458 308.188 609.466 307.78 610.162 307.516L610.126 313.672L603.61 314.896C604.426 316.576 604.834 318.268 604.834 319.972C604.834 323.26 603.538 326.044 600.946 328.324C598.378 330.604 594.502 331.744 589.318 331.744C589.03 331.744 588.658 331.744 588.202 331.744C587.77 331.72 587.398 331.696 587.086 331.672C584.518 331.744 582.754 332.032 581.794 332.536C580.858 333.04 580.39 333.58 580.39 334.156C580.39 334.852 580.93 335.332 582.01 335.596C583.09 335.86 584.926 336.088 587.518 336.28C588.454 336.328 589.606 336.4 590.974 336.496C592.342 336.568 593.878 336.652 595.582 336.748C599.494 336.988 602.506 337.984 604.618 339.736C606.73 341.488 607.786 343.852 607.786 346.828C607.786 350.212 606.274 352.972 603.25 355.108C600.226 357.244 595.63 358.312 589.462 358.312ZM589.498 327.46C592.186 327.46 594.346 326.836 595.978 325.588C597.634 324.34 598.462 322.492 598.462 320.044C598.462 317.548 597.634 315.64 595.978 314.32C594.346 312.976 592.186 312.304 589.498 312.304C586.786 312.304 584.59 312.976 582.91 314.32C581.254 315.64 580.426 317.548 580.426 320.044C580.426 322.396 581.218 324.22 582.802 325.516C584.386 326.812 586.618 327.46 589.498 327.46ZM590.65 354.028C594.082 354.028 596.71 353.512 598.534 352.48C600.358 351.448 601.27 349.888 601.27 347.8C601.27 346.336 600.706 345.124 599.578 344.164C598.474 343.204 596.782 342.652 594.502 342.508L584.062 341.824C583.126 341.776 582.154 342.016 581.146 342.544C580.138 343.048 579.274 343.756 578.554 344.668C577.858 345.58 577.51 346.612 577.51 347.764C577.51 349.756 578.578 351.292 580.714 352.372C582.85 353.476 586.162 354.028 590.65 354.028ZM618.485 346V308.776H624.929V314.176C625.841 312.616 627.269 311.236 629.213 310.036C631.157 308.836 633.617 308.236 636.593 308.236C638.945 308.236 641.105 308.704 643.073 309.64C645.065 310.576 646.649 312.04 647.825 314.032C649.025 316 649.625 318.544 649.625 321.664V346H642.965V322.312C642.965 319.408 642.197 317.26 640.661 315.868C639.149 314.452 637.181 313.744 634.757 313.744C633.077 313.744 631.505 314.02 630.041 314.572C628.577 315.1 627.389 315.916 626.477 317.02C625.565 318.1 625.109 319.468 625.109 321.124V346H618.485ZM664.791 328.936C664.791 331.288 665.175 333.424 665.943 335.344C666.735 337.24 667.923 338.752 669.507 339.88C671.115 341.008 673.119 341.572 675.519 341.572C677.895 341.572 679.935 341.02 681.639 339.916C683.367 338.812 684.471 337.216 684.951 335.128H691.251C690.795 337.648 689.787 339.772 688.227 341.5C686.667 343.228 684.783 344.536 682.575 345.424C680.367 346.288 678.063 346.72 675.663 346.72C672.183 346.72 669.123 345.964 666.483 344.452C663.843 342.94 661.779 340.768 660.291 337.936C658.803 335.104 658.059 331.708 658.059 327.748C658.059 323.836 658.731 320.404 660.075 317.452C661.419 314.5 663.363 312.196 665.907 310.54C668.475 308.884 671.559 308.056 675.159 308.056C680.415 308.056 684.447 309.724 687.255 313.06C690.063 316.372 691.467 320.848 691.467 326.488V328.936H664.791ZM664.827 324.436H685.059C685.059 321.244 684.243 318.556 682.611 316.372C680.979 314.188 678.483 313.096 675.123 313.096C672.795 313.096 670.863 313.66 669.327 314.788C667.791 315.892 666.651 317.32 665.907 319.072C665.163 320.8 664.803 322.588 664.827 324.436ZM700.61 346V308.776H706.946V315.94C707.882 313.276 709.358 311.296 711.374 310C713.414 308.704 715.61 308.056 717.962 308.056C718.514 308.056 719.042 308.092 719.546 308.164C720.074 308.236 720.494 308.356 720.806 308.524V314.968C720.446 314.8 719.978 314.692 719.402 314.644C718.85 314.572 718.382 314.536 717.998 314.536C715.046 314.344 712.514 314.908 710.402 316.228C708.29 317.548 707.234 319.756 707.234 322.852V346H700.61ZM721.773 346V337.504H729.693V346H721.773Z" fill="black"/>
<rect x="12.5" y="12.5" width="790" height="366" stroke="black"/>
<rect x="0.5" y="0.5" width="24" height="24" fill="white" stroke="black"/>
<line x1="39" y1="239.5" x2="787" y2="239.5" stroke="#485BFF" stroke-width="3"/>
</svg>
